# xmcd
#
# Track frame offsets: 
#        150
#        36527
#        51989
#        65381
#        85870
#        99308
#        114581
#        129369
#
# Disc length: 1923 seconds
#
# Revision: 0
# Processed by: cddbd v1.5.2PL0 Copyright (c) Steve Scherf et al.
# Submitted via: ExactAudioCopy v1.1
#
DISCID=68078108
DTITLE=Le Payback - Le Payback
DYEAR=1977
DGENRE=Soul
TTITLE0=Le Payback    (Vocal)
TTITLE1=Struttin'
TTITLE2=Feelin' Good
TTITLE3=Funky Feelin'
TTITLE4=The Forge
TTITLE5=Disco Boogie
TTITLE6=Le Payback (Instrumental)
TTITLE7=The Mad Mechanic
EXTD=
EXTT0=
EXTT1=
EXTT2=
EXTT3=
EXTT4=
EXTT5=
EXTT6=
EXTT7=
PLAYORDER=
